# xmcd
#
# Track frame offsets: 
#        150
#        21296
#        40835
#        56931
#        76637
#        100261
#        116516
#        135877
#        151802
#        169265
#        190211
#        215582
#        232726
#        253827
#        278197
#        299797
#
# Disc length: 4413 seconds
#
# Revision: 0
# Processed by: cddbd v1.5.2PL0 Copyright (c) Steve Scherf et al.
# Submitted via: ExactAudioCopyFreeDBPlugin 1.0
#
DISCID=df113b10
DTITLE=Ivano Fossati - Ivano Fossati Live Dopo Tutto
DYEAR=2012
DGENRE=italiano
TTITLE0=Viaggiatori D'Occidente
TTITLE1=Ventilazione
TTITLE2=La Decadenza
TTITLE3=Quello Che Manca Al Mondo
TTITLE4=Stella Benigna
TTITLE5=Settembre
TTITLE6=L'Amore Fa
TTITLE7=Ho Sognato Una Strada
TTITLE8=Cara Democrazia
TTITLE9=La Crisi
TTITLE10=L'Amore Trasparente
TTITLE11=L'Orologio Americano
TTITLE12=Carte Da Decifrare
TTITLE13=La Musica Che Gira Intorno
TTITLE14=Di Tanto Amore
TTITLE15=La Costruzione Di Un Amore
EXTD=
EXTT0=
EXTT1=
EXTT2=
EXTT3=
EXTT4=
EXTT5=
EXTT6=
EXTT7=
EXTT8=
EXTT9=
EXTT10=
EXTT11=
EXTT12=
EXTT13=
EXTT14=
EXTT15=
PLAYORDER=
